<mxfile host="app.diagrams.net" modified="2024-01-06T06:18:36.193Z" agent="Mozilla/5.0 (Windows NT 10.0; Win64; x64) AppleWebKit/537.36 (KHTML, like Gecko) Chrome/120.0.0.0 Safari/537.36" version="22.1.16" etag="cFQNT8GU5_hp8Y2NB1mA" type="github">
  <diagram name="第 1 页" id="D3v7gk10sWUU6twCLJav">
    <mxGraphModel>
      <root>
        <mxCell id="0" />
        <mxCell id="1" parent="0" />
      </root>
    </mxGraphModel>
  </diagram>
</mxfile>
